                Unfaithful 2002 DVDRip Xvid LKRG


RIPPER                           : fasamoo
Format                           : AVI
Format/Info                      : Audio Video Interleave
File size                        : 800 MiB
Duration                         : 2h 3mn
Overall bit rate                 : 905 Kbps
Writing application              : VirtualDubMod 1.5.4.1 (build 2178/release)
Writing library                  : VirtualDubMod build 2178/release
Language                         : English
Subtitles                        : English(*.srt)
                                   English,Spanish,French(*.idx,*.sub)
Genre                            : Drama | Romance

Video
ID                               : 0
Format                           : MPEG-4 Visual
Format profile                   : Advanced Simple@L5
Format settings, BVOP            : Yes
Format settings, QPel            : No
Format settings, GMC             : No warppoints
Format settings, Matrix          : Custom
Codec ID                         : XVID
Codec ID/Hint                    : XviD
Duration                         : 2h 3mn
Bit rate                         : 781 Kbps
Width                            : 624 pixels
Height                           : 336 pixels
Display aspect ratio             : 1.857
Frame rate                       : 23.976 fps
Color space                      : YUV
Chroma subsampling               : 4:2:0
Bit depth                        : 8 bits
Scan type                        : Progressive
Bits/(Pixel*Frame)               : 0.155
Stream size                      : 690 MiB (86%)
Writing library                  : XviD 1.2.1 (UTC 2008-12-04)

Audio
ID                               : 1
Format                           : MPEG Audio
Format version                   : Version 1
Format profile                   : Layer 3
Mode                             : Joint stereo
Mode extension                   : MS Stereo
Codec ID                         : 55
Codec ID/Hint                    : MP3
Duration                         : 2h 3mn
Bit rate mode                    : Variable
Bit rate                         : 112 Kbps
Nominal bit rate                 : 128 Kbps
Channel(s)                       : 2 channels
Sampling rate                    : 48.0 KHz
Stream size                      : 98.7 MiB (12%)
Alignment                        : Aligned on interleaves
Interleave, duration             : 24 ms (0.58 video frame)
Interleave, preload duration     : 165 ms
Writing library                  : LAME3.98r
Encoding settings                : -m j -V 4 -q 2 -lowpass 17 --abr 128

                                 PLOT

Connie Sumner has a loving husband, a beautiful home, and a wonderful son, but she wants more. When she's approached one day by a handsome stranger while trying to hail a taxi, she becomes obsessed with him and eventually starts an affair. But her selfish actions soon catch up with her...

  







                                 IMBD
                     
                    http://www.imdb.com/title/tt0250797/
 
http://leetleech.org/images/71632313923085323804.png 
http://leetleech.org/images/63735427654821129695.png 
http://leetleech.org/images/17564436569731232142.png 
http://leetleech.org/images/49138170842975674073.png 
http://leetleech.org/images/52567727469074176978.png 
http://leetleech.org/images/06379462120330023339.png